<mxfile host="app.diagrams.net" modified="2021-02-13T19:38:00.403Z" agent="5.0 (Windows NT 6.1; Win64; x64) AppleWebKit/537.36 (KHTML, like Gecko) Chrome/88.0.4324.150 Safari/537.36" etag="8-uVhCy_1kNedabTDZj0" version="14.3.0" type="github">
  <diagram id="R2lEEEUBdFMjLlhIrx00" name="Page-1">
    <mxGraphModel dx="868" dy="520" grid="1" gridSize="10" guides="1" tooltips="1" connect="1" arrows="1" fold="1" page="1" pageScale="1" pageWidth="850" pageHeight="1100" math="0" shadow="0" extFonts="Permanent Marker^https://fonts.googleapis.com/css?family=Permanent+Marker">
      <root>
        <mxCell id="0" />
        <mxCell id="1" parent="0" />
        <mxCell id="UFklC3_tIFrhamS6I9IV-12" value="" style="edgeStyle=orthogonalEdgeStyle;rounded=0;orthogonalLoop=1;jettySize=auto;html=1;" edge="1" parent="1" source="UFklC3_tIFrhamS6I9IV-6" target="UFklC3_tIFrhamS6I9IV-7">
          <mxGeometry relative="1" as="geometry" />
        </mxCell>
        <mxCell id="UFklC3_tIFrhamS6I9IV-6" value="IDESTUDIANTE" style="ellipse;whiteSpace=wrap;html=1;" vertex="1" parent="1">
          <mxGeometry x="30" y="90" width="120" height="80" as="geometry" />
        </mxCell>
        <mxCell id="UFklC3_tIFrhamS6I9IV-13" value="M" style="edgeStyle=orthogonalEdgeStyle;rounded=0;orthogonalLoop=1;jettySize=auto;html=1;entryX=0;entryY=0.5;entryDx=0;entryDy=0;endArrow=none;endFill=0;" edge="1" parent="1" source="UFklC3_tIFrhamS6I9IV-7" target="UFklC3_tIFrhamS6I9IV-8">
          <mxGeometry relative="1" as="geometry" />
        </mxCell>
        <mxCell id="UFklC3_tIFrhamS6I9IV-7" value="ESTUDIANTE" style="rounded=0;whiteSpace=wrap;html=1;" vertex="1" parent="1">
          <mxGeometry x="110" y="180" width="120" height="60" as="geometry" />
        </mxCell>
        <mxCell id="UFklC3_tIFrhamS6I9IV-15" value="N" style="edgeStyle=orthogonalEdgeStyle;rounded=0;orthogonalLoop=1;jettySize=auto;html=1;exitX=1;exitY=0.5;exitDx=0;exitDy=0;entryX=0;entryY=0.5;entryDx=0;entryDy=0;endArrow=none;endFill=0;" edge="1" parent="1" source="UFklC3_tIFrhamS6I9IV-8" target="UFklC3_tIFrhamS6I9IV-9">
          <mxGeometry relative="1" as="geometry" />
        </mxCell>
        <mxCell id="UFklC3_tIFrhamS6I9IV-8" value="SE INSCRIBE" style="rhombus;whiteSpace=wrap;html=1;" vertex="1" parent="1">
          <mxGeometry x="330" y="170" width="110" height="80" as="geometry" />
        </mxCell>
        <mxCell id="UFklC3_tIFrhamS6I9IV-9" value="CURSO" style="rounded=0;whiteSpace=wrap;html=1;" vertex="1" parent="1">
          <mxGeometry x="540" y="180" width="120" height="60" as="geometry" />
        </mxCell>
        <mxCell id="UFklC3_tIFrhamS6I9IV-16" style="edgeStyle=orthogonalEdgeStyle;rounded=0;orthogonalLoop=1;jettySize=auto;html=1;exitX=0.5;exitY=1;exitDx=0;exitDy=0;endArrow=none;endFill=0;" edge="1" parent="1" source="UFklC3_tIFrhamS6I9IV-10" target="UFklC3_tIFrhamS6I9IV-9">
          <mxGeometry relative="1" as="geometry" />
        </mxCell>
        <mxCell id="UFklC3_tIFrhamS6I9IV-10" value="IDCURSO" style="ellipse;whiteSpace=wrap;html=1;" vertex="1" parent="1">
          <mxGeometry x="610" y="70" width="120" height="80" as="geometry" />
        </mxCell>
        <mxCell id="UFklC3_tIFrhamS6I9IV-11" value="1" style="text;html=1;strokeColor=none;fillColor=none;align=center;verticalAlign=middle;whiteSpace=wrap;rounded=0;fontStyle=1" vertex="1" parent="1">
          <mxGeometry x="20" y="40" width="40" height="40" as="geometry" />
        </mxCell>
        <mxCell id="UFklC3_tIFrhamS6I9IV-17" value="" style="edgeStyle=orthogonalEdgeStyle;rounded=0;orthogonalLoop=1;jettySize=auto;html=1;" edge="1" parent="1" source="UFklC3_tIFrhamS6I9IV-18" target="UFklC3_tIFrhamS6I9IV-20">
          <mxGeometry relative="1" as="geometry" />
        </mxCell>
        <mxCell id="UFklC3_tIFrhamS6I9IV-18" value="IDLIBRO" style="ellipse;whiteSpace=wrap;html=1;" vertex="1" parent="1">
          <mxGeometry x="30" y="330" width="120" height="80" as="geometry" />
        </mxCell>
        <mxCell id="UFklC3_tIFrhamS6I9IV-19" value="1" style="edgeStyle=orthogonalEdgeStyle;rounded=0;orthogonalLoop=1;jettySize=auto;html=1;entryX=0;entryY=0.5;entryDx=0;entryDy=0;endArrow=none;endFill=0;" edge="1" parent="1" source="UFklC3_tIFrhamS6I9IV-20" target="UFklC3_tIFrhamS6I9IV-22">
          <mxGeometry relative="1" as="geometry">
            <Array as="points">
              <mxPoint x="280" y="450" />
              <mxPoint x="280" y="450" />
            </Array>
          </mxGeometry>
        </mxCell>
        <mxCell id="UFklC3_tIFrhamS6I9IV-20" value="LIBRO" style="rounded=0;whiteSpace=wrap;html=1;" vertex="1" parent="1">
          <mxGeometry x="110" y="420" width="120" height="60" as="geometry" />
        </mxCell>
        <mxCell id="UFklC3_tIFrhamS6I9IV-21" value="M" style="edgeStyle=orthogonalEdgeStyle;rounded=0;orthogonalLoop=1;jettySize=auto;html=1;exitX=1;exitY=0.5;exitDx=0;exitDy=0;entryX=0;entryY=0.5;entryDx=0;entryDy=0;endArrow=none;endFill=0;" edge="1" parent="1" source="UFklC3_tIFrhamS6I9IV-22" target="UFklC3_tIFrhamS6I9IV-23">
          <mxGeometry relative="1" as="geometry" />
        </mxCell>
        <mxCell id="UFklC3_tIFrhamS6I9IV-22" value="SE COPIA" style="rhombus;whiteSpace=wrap;html=1;" vertex="1" parent="1">
          <mxGeometry x="330" y="410" width="110" height="80" as="geometry" />
        </mxCell>
        <mxCell id="UFklC3_tIFrhamS6I9IV-23" value="COPIA" style="rounded=0;whiteSpace=wrap;html=1;" vertex="1" parent="1">
          <mxGeometry x="540" y="420" width="120" height="60" as="geometry" />
        </mxCell>
        <mxCell id="UFklC3_tIFrhamS6I9IV-24" style="edgeStyle=orthogonalEdgeStyle;rounded=0;orthogonalLoop=1;jettySize=auto;html=1;exitX=0.5;exitY=1;exitDx=0;exitDy=0;endArrow=none;endFill=0;" edge="1" parent="1" source="UFklC3_tIFrhamS6I9IV-25" target="UFklC3_tIFrhamS6I9IV-23">
          <mxGeometry relative="1" as="geometry" />
        </mxCell>
        <mxCell id="UFklC3_tIFrhamS6I9IV-25" value="IDCOPIA" style="ellipse;whiteSpace=wrap;html=1;" vertex="1" parent="1">
          <mxGeometry x="610" y="310" width="120" height="80" as="geometry" />
        </mxCell>
        <mxCell id="UFklC3_tIFrhamS6I9IV-26" value="2" style="text;html=1;strokeColor=none;fillColor=none;align=center;verticalAlign=middle;whiteSpace=wrap;rounded=0;fontStyle=1" vertex="1" parent="1">
          <mxGeometry x="20" y="280" width="40" height="40" as="geometry" />
        </mxCell>
        <mxCell id="UFklC3_tIFrhamS6I9IV-36" value="" style="edgeStyle=orthogonalEdgeStyle;rounded=0;orthogonalLoop=1;jettySize=auto;html=1;" edge="1" parent="1" source="UFklC3_tIFrhamS6I9IV-37" target="UFklC3_tIFrhamS6I9IV-39">
          <mxGeometry relative="1" as="geometry" />
        </mxCell>
        <mxCell id="UFklC3_tIFrhamS6I9IV-37" value="IDCURSO" style="ellipse;whiteSpace=wrap;html=1;" vertex="1" parent="1">
          <mxGeometry x="30" y="540" width="120" height="80" as="geometry" />
        </mxCell>
        <mxCell id="UFklC3_tIFrhamS6I9IV-38" value="1" style="edgeStyle=orthogonalEdgeStyle;rounded=0;orthogonalLoop=1;jettySize=auto;html=1;entryX=0;entryY=0.5;entryDx=0;entryDy=0;endArrow=none;endFill=0;" edge="1" parent="1" source="UFklC3_tIFrhamS6I9IV-39" target="UFklC3_tIFrhamS6I9IV-41">
          <mxGeometry relative="1" as="geometry">
            <Array as="points">
              <mxPoint x="280" y="660" />
              <mxPoint x="280" y="660" />
            </Array>
          </mxGeometry>
        </mxCell>
        <mxCell id="UFklC3_tIFrhamS6I9IV-39" value="CURSO" style="rounded=0;whiteSpace=wrap;html=1;" vertex="1" parent="1">
          <mxGeometry x="110" y="630" width="120" height="60" as="geometry" />
        </mxCell>
        <mxCell id="UFklC3_tIFrhamS6I9IV-40" value="M" style="edgeStyle=orthogonalEdgeStyle;rounded=0;orthogonalLoop=1;jettySize=auto;html=1;exitX=1;exitY=0.5;exitDx=0;exitDy=0;entryX=0;entryY=0.5;entryDx=0;entryDy=0;endArrow=none;endFill=0;" edge="1" parent="1" source="UFklC3_tIFrhamS6I9IV-41" target="UFklC3_tIFrhamS6I9IV-42">
          <mxGeometry relative="1" as="geometry" />
        </mxCell>
        <mxCell id="UFklC3_tIFrhamS6I9IV-41" value="TIENE" style="rhombus;whiteSpace=wrap;html=1;" vertex="1" parent="1">
          <mxGeometry x="330" y="620" width="110" height="80" as="geometry" />
        </mxCell>
        <mxCell id="UFklC3_tIFrhamS6I9IV-42" value="SECCION" style="rounded=0;whiteSpace=wrap;html=1;" vertex="1" parent="1">
          <mxGeometry x="540" y="630" width="120" height="60" as="geometry" />
        </mxCell>
        <mxCell id="UFklC3_tIFrhamS6I9IV-43" style="edgeStyle=orthogonalEdgeStyle;rounded=0;orthogonalLoop=1;jettySize=auto;html=1;exitX=0.5;exitY=1;exitDx=0;exitDy=0;endArrow=none;endFill=0;" edge="1" parent="1" source="UFklC3_tIFrhamS6I9IV-44" target="UFklC3_tIFrhamS6I9IV-42">
          <mxGeometry relative="1" as="geometry" />
        </mxCell>
        <mxCell id="UFklC3_tIFrhamS6I9IV-44" value="IDSECCION" style="ellipse;whiteSpace=wrap;html=1;" vertex="1" parent="1">
          <mxGeometry x="610" y="520" width="120" height="80" as="geometry" />
        </mxCell>
        <mxCell id="UFklC3_tIFrhamS6I9IV-45" value="3" style="text;html=1;strokeColor=none;fillColor=none;align=center;verticalAlign=middle;whiteSpace=wrap;rounded=0;fontStyle=1" vertex="1" parent="1">
          <mxGeometry x="20" y="490" width="40" height="40" as="geometry" />
        </mxCell>
        <mxCell id="UFklC3_tIFrhamS6I9IV-46" value="" style="edgeStyle=orthogonalEdgeStyle;rounded=0;orthogonalLoop=1;jettySize=auto;html=1;" edge="1" parent="1" source="UFklC3_tIFrhamS6I9IV-47" target="UFklC3_tIFrhamS6I9IV-49">
          <mxGeometry relative="1" as="geometry" />
        </mxCell>
        <mxCell id="UFklC3_tIFrhamS6I9IV-47" value="IDSECCION" style="ellipse;whiteSpace=wrap;html=1;" vertex="1" parent="1">
          <mxGeometry x="30" y="750" width="120" height="80" as="geometry" />
        </mxCell>
        <mxCell id="UFklC3_tIFrhamS6I9IV-48" value="B" style="edgeStyle=orthogonalEdgeStyle;rounded=0;orthogonalLoop=1;jettySize=auto;html=1;entryX=0;entryY=0.5;entryDx=0;entryDy=0;endArrow=none;endFill=0;" edge="1" parent="1" source="UFklC3_tIFrhamS6I9IV-49" target="UFklC3_tIFrhamS6I9IV-51">
          <mxGeometry relative="1" as="geometry">
            <Array as="points">
              <mxPoint x="280" y="870" />
              <mxPoint x="280" y="870" />
            </Array>
          </mxGeometry>
        </mxCell>
        <mxCell id="UFklC3_tIFrhamS6I9IV-49" value="SECCION" style="rounded=0;whiteSpace=wrap;html=1;" vertex="1" parent="1">
          <mxGeometry x="110" y="840" width="120" height="60" as="geometry" />
        </mxCell>
        <mxCell id="UFklC3_tIFrhamS6I9IV-50" value="M" style="edgeStyle=orthogonalEdgeStyle;rounded=0;orthogonalLoop=1;jettySize=auto;html=1;exitX=1;exitY=0.5;exitDx=0;exitDy=0;entryX=0;entryY=0.5;entryDx=0;entryDy=0;endArrow=none;endFill=0;" edge="1" parent="1" source="UFklC3_tIFrhamS6I9IV-51" target="UFklC3_tIFrhamS6I9IV-52">
          <mxGeometry relative="1" as="geometry" />
        </mxCell>
        <mxCell id="UFklC3_tIFrhamS6I9IV-51" value="SE ASIGNA" style="rhombus;whiteSpace=wrap;html=1;" vertex="1" parent="1">
          <mxGeometry x="330" y="830" width="110" height="80" as="geometry" />
        </mxCell>
        <mxCell id="UFklC3_tIFrhamS6I9IV-52" value="SECCION" style="rounded=0;whiteSpace=wrap;html=1;" vertex="1" parent="1">
          <mxGeometry x="540" y="840" width="120" height="60" as="geometry" />
        </mxCell>
        <mxCell id="UFklC3_tIFrhamS6I9IV-53" style="edgeStyle=orthogonalEdgeStyle;rounded=0;orthogonalLoop=1;jettySize=auto;html=1;exitX=0.5;exitY=1;exitDx=0;exitDy=0;endArrow=none;endFill=0;" edge="1" parent="1" source="UFklC3_tIFrhamS6I9IV-54" target="UFklC3_tIFrhamS6I9IV-52">
          <mxGeometry relative="1" as="geometry" />
        </mxCell>
        <mxCell id="UFklC3_tIFrhamS6I9IV-54" value="IDAULAS" style="ellipse;whiteSpace=wrap;html=1;" vertex="1" parent="1">
          <mxGeometry x="610" y="730" width="120" height="80" as="geometry" />
        </mxCell>
        <mxCell id="UFklC3_tIFrhamS6I9IV-55" value="4" style="text;html=1;strokeColor=none;fillColor=none;align=center;verticalAlign=middle;whiteSpace=wrap;rounded=0;fontStyle=1" vertex="1" parent="1">
          <mxGeometry x="20" y="700" width="40" height="40" as="geometry" />
        </mxCell>
        <mxCell id="UFklC3_tIFrhamS6I9IV-56" value="" style="edgeStyle=orthogonalEdgeStyle;rounded=0;orthogonalLoop=1;jettySize=auto;html=1;" edge="1" parent="1" source="UFklC3_tIFrhamS6I9IV-57" target="UFklC3_tIFrhamS6I9IV-59">
          <mxGeometry relative="1" as="geometry" />
        </mxCell>
        <mxCell id="UFklC3_tIFrhamS6I9IV-57" value="IDINSTRUCTOR" style="ellipse;whiteSpace=wrap;html=1;" vertex="1" parent="1">
          <mxGeometry x="30" y="940" width="120" height="80" as="geometry" />
        </mxCell>
        <mxCell id="UFklC3_tIFrhamS6I9IV-58" value="B" style="edgeStyle=orthogonalEdgeStyle;rounded=0;orthogonalLoop=1;jettySize=auto;html=1;entryX=0;entryY=0.5;entryDx=0;entryDy=0;endArrow=none;endFill=0;" edge="1" parent="1" source="UFklC3_tIFrhamS6I9IV-59" target="UFklC3_tIFrhamS6I9IV-61">
          <mxGeometry relative="1" as="geometry">
            <Array as="points">
              <mxPoint x="280" y="1060" />
              <mxPoint x="280" y="1060" />
            </Array>
          </mxGeometry>
        </mxCell>
        <mxCell id="UFklC3_tIFrhamS6I9IV-59" value="INSTRUCTOR" style="rounded=0;whiteSpace=wrap;html=1;" vertex="1" parent="1">
          <mxGeometry x="110" y="1030" width="120" height="60" as="geometry" />
        </mxCell>
        <mxCell id="UFklC3_tIFrhamS6I9IV-60" value="M" style="edgeStyle=orthogonalEdgeStyle;rounded=0;orthogonalLoop=1;jettySize=auto;html=1;exitX=1;exitY=0.5;exitDx=0;exitDy=0;entryX=0;entryY=0.5;entryDx=0;entryDy=0;endArrow=none;endFill=0;" edge="1" parent="1" source="UFklC3_tIFrhamS6I9IV-61" target="UFklC3_tIFrhamS6I9IV-62">
          <mxGeometry relative="1" as="geometry" />
        </mxCell>
        <mxCell id="UFklC3_tIFrhamS6I9IV-61" value="SE ASIGNA" style="rhombus;whiteSpace=wrap;html=1;" vertex="1" parent="1">
          <mxGeometry x="330" y="1020" width="110" height="80" as="geometry" />
        </mxCell>
        <mxCell id="UFklC3_tIFrhamS6I9IV-62" value="CURSO" style="rounded=0;whiteSpace=wrap;html=1;" vertex="1" parent="1">
          <mxGeometry x="540" y="1030" width="120" height="60" as="geometry" />
        </mxCell>
        <mxCell id="UFklC3_tIFrhamS6I9IV-63" style="edgeStyle=orthogonalEdgeStyle;rounded=0;orthogonalLoop=1;jettySize=auto;html=1;exitX=0.5;exitY=1;exitDx=0;exitDy=0;endArrow=none;endFill=0;" edge="1" parent="1" source="UFklC3_tIFrhamS6I9IV-64" target="UFklC3_tIFrhamS6I9IV-62">
          <mxGeometry relative="1" as="geometry" />
        </mxCell>
        <mxCell id="UFklC3_tIFrhamS6I9IV-64" value="IDCURSO" style="ellipse;whiteSpace=wrap;html=1;" vertex="1" parent="1">
          <mxGeometry x="610" y="920" width="120" height="80" as="geometry" />
        </mxCell>
        <mxCell id="UFklC3_tIFrhamS6I9IV-65" value="5" style="text;html=1;strokeColor=none;fillColor=none;align=center;verticalAlign=middle;whiteSpace=wrap;rounded=0;fontStyle=1" vertex="1" parent="1">
          <mxGeometry x="20" y="890" width="40" height="40" as="geometry" />
        </mxCell>
      </root>
    </mxGraphModel>
  </diagram>
</mxfile>
